<svg id="Layer_5" enable-background="new 0 0 64 64" height="512" viewBox="0 0 64 64" width="512" xmlns="http://www.w3.org/2000/svg"><path d="m28 19c0-.678.051-1.343.128-2h-21.128c-1.103 0-2 .897-2 2v18c0 1.103.897 2 2 2h22c1.103 0 2-.897 2-2v-8.366c-1.889-2.739-3-6.055-3-9.634z" fill="#f0bc5e"/><path d="m23 35c-2.206 0-4-1.794-4-4h2c0 1.103.897 2 2 2s2-.897 2-2-.897-2-2-2c-2.206 0-4-1.794-4-4s1.794-4 4-4 4 1.794 4 4h-2c0-1.103-.897-2-2-2s-2 .897-2 2 .897 2 2 2c2.206 0 4 1.794 4 4s-1.794 4-4 4z"/><path d="m13 35c-2.206 0-4-1.794-4-4v-6c0-2.206 1.794-4 4-4s4 1.794 4 4v6c0 2.206-1.794 4-4 4zm0-12c-1.103 0-2 .897-2 2v6c0 1.103.897 2 2 2s2-.897 2-2v-6c0-1.103-.897-2-2-2z"/><path d="m45 1c-7.819 0-14.471 5.021-16.95 12h-22.05c-2.757 0-5 2.243-5 5v28c0 2.757 2.243 5 5 5h16v2h-5.764c-1.144 0-2.171.636-2.683 1.658l-1.553 3.106v5.236h32v-5.236l-1.553-3.105c-.511-1.023-1.539-1.659-2.683-1.659h-5.764v-2h16c2.757 0 5-2.243 5-5v-12.044c4.82-3.233 8-8.729 8-14.956 0-9.925-8.075-18-18-18zm-28.764 54h5.764v2h-7.382l.724-1.447c.17-.341.513-.553.894-.553zm-2.236 6v-2h28v2zm25.764-6c.381 0 .724.212.894.553l.724 1.447h-7.382v-2zm-7.764 2h-8v-6h8zm21-11c0 1.654-1.346 3-3 3h-44c-1.654 0-3-1.346-3-3v-3h15v1c0 1.654 1.346 3 3 3h14c1.654 0 3-1.346 3-3v-1h15zm-17-3v1c0 .552-.449 1-1 1h-3v-2zm-6 2h-4v-2h4zm-6 0h-3c-.551 0-1-.448-1-1v-1h4zm29-4h-50v-23c0-1.654 1.346-3 3-3h21.464c-.294 1.289-.464 2.624-.464 4 0 9.925 8.075 18 18 18 2.876 0 5.586-.695 8-1.899zm5.529-13.496c-.461.73-.977 1.419-1.547 2.063l-6.325-6.324-1.414 1.414 6.325 6.324c-.645.569-1.334 1.086-2.064 1.547l-5.918-7.397-1.562 1.25 5.695 7.119c-2.046.953-4.317 1.5-6.719 1.5-8.822 0-16-7.178-16-16 0-2.402.547-4.673 1.5-6.72l7.12 5.696 1.249-1.562-7.397-5.918c.461-.73.978-1.419 1.547-2.064l6.325 6.325 1.414-1.414-6.325-6.325c.645-.569 1.334-1.086 2.064-1.547l5.918 7.397 1.562-1.25-5.697-7.119c2.047-.952 4.318-1.499 6.72-1.499 8.822 0 16 7.178 16 16 0 2.402-.547 4.673-1.5 6.72l-7.12-5.696-1.249 1.562z"/><path d="m59 19h-2c0-.618-.047-1.24-.141-1.848l1.977-.305c.109.709.164 1.432.164 2.153z"/><path d="m56.421 15.308c-1.605-4.969-6.194-8.308-11.421-8.308v-2c6.097 0 11.452 3.896 13.325 9.692z"/><path d="m45 27c-4.411 0-8-3.589-8-8s3.589-8 8-8 8 3.589 8 8-3.589 8-8 8zm0-11c-1.654 0-3 1.346-3 3s1.346 3 3 3 3-1.346 3-3-1.346-3-3-3z" fill="#f0bc5e"/><path d="m45 23c-2.206 0-4-1.794-4-4s1.794-4 4-4 4 1.794 4 4-1.794 4-4 4zm0-6c-1.103 0-2 .897-2 2s.897 2 2 2 2-.897 2-2-.897-2-2-2z"/></svg>